# xmcd CD database file
#
# Track frame offsets:
#	150
#	19737
#	43007
#	63992
#	83112
#	101785
#	122570
#	138760
#	160815
#	178757
#
# Disc length: 2632 seconds
#
# Revision: 0
# Processed by: cddbd v1.5.2PL0 Copyright (c) Steve Scherf et al.
# Submitted via: jetAudio 7
#
DISCID=7d0a460a
DTITLE=Soular Castle - Spirit without the Wall
DYEAR=1900
DGENRE=Misc
TTITLE0=Woman on Top
TTITLE1=Spirit without the Wall
TTITLE2=Let It Go!
TTITLE3=Blame It on the Sound
TTITLE4=The Reason Why
TTITLE5=Unsung Hero
TTITLE6=Captain John
TTITLE7=The Fat Lady
TTITLE8=Keep Myself Around
TTITLE9=Platinum Blondage
EXTD=
EXTT0=
EXTT1=
EXTT2=
EXTT3=
EXTT4=
EXTT5=
EXTT6=
EXTT7=
EXTT8=
EXTT9=
PLAYORDER=
